<svg width="627" height="659" viewBox="0 0 627 659" fill="none" xmlns="http://www.w3.org/2000/svg">
<path d="M0.570971 343.612V203.619C0.570971 197.755 8.60365 203.256 12.5628 205.255C101.645 250.253 281.294 340.812 287.232 343.612C293.171 346.412 294.656 348.249 294.656 349.612V423.108C294.656 428.308 290.088 427.608 287.803 426.608L228.415 394.61V387.11C228.415 380.31 221.944 374.611 218.708 372.611C170.36 347.779 72.6361 297.415 68.5246 294.615C64.4131 291.815 63.0046 294.115 62.8142 295.615C62.8142 300.614 62.7 313.814 62.2432 326.613C61.7864 339.412 70.4281 345.612 74.806 347.112C118.015 368.778 213.911 417.308 251.828 438.107C289.745 458.906 297.701 493.105 296.94 507.604C297.13 552.268 296.94 643.084 296.94 649.097C296.94 655.233 297.701 657.9 294.656 656.733L275.812 647.097C207.477 610.932 63.9563 535.103 36.5465 521.103C9.13662 507.104 0.761385 487.605 0 479.605L1.08116 421.389C1.10896 419.891 2.69077 418.943 4.00901 419.654C16.053 426.145 62.0473 450.922 64.5274 452.107C61.3295 464.906 68.9053 471.772 73.0929 473.606C113.066 494.271 195.98 537.203 207.858 543.602C219.736 550.002 226.512 546.269 228.415 543.602C228.606 536.603 228.872 519.603 228.415 507.604C227.959 495.605 217.185 486.605 211.855 483.605C160.462 457.107 51.8502 400.909 28.5519 388.11C5.25349 375.311 0.190279 353.112 0.570971 343.612Z" fill="url(#paint0_linear_1249_6573)"/>
<path d="M297.714 1.02898C298.3 0.698697 299.014 0.685249 299.612 0.993827L605.201 158.648C606.618 159.379 606.651 161.394 605.259 162.172L317.274 322.971C316.699 323.292 316.003 323.31 315.413 323.018L244.974 288.181C243.527 287.466 243.48 285.419 244.893 284.638L325.07 240.301C326.469 239.528 326.439 237.507 325.019 236.774L165.397 154.475C164.811 154.173 164.112 154.18 163.531 154.493L79.1552 199.993C78.5778 200.304 77.8836 200.313 77.2988 200.015L10.7539 166.184C9.33027 165.461 9.28721 163.443 10.6787 162.659L297.714 1.02898ZM211.855 126.494L375.172 211.491L473.963 157.992L308.933 72.4958L211.855 126.494Z" fill="url(#paint1_linear_1249_6573)"/>
<path d="M331.376 656.388L331.203 350.829C331.202 350.103 331.573 349.446 332.207 349.092C354.361 336.722 406.092 306.264 406.353 306.109C406.362 306.105 406.355 306.109 406.363 306.104C406.622 305.957 412.397 302.664 412.345 302.605C432.131 324.627 468.763 364.891 470.07 366.092C471.248 367.174 472.219 366.713 472.665 366.245C472.757 366.149 472.821 366.031 472.876 365.911L534.066 232.038C534.238 231.661 534.511 231.355 534.869 231.147C557.205 218.19 602.006 192.198 606.76 189.417C611.553 186.615 613.114 188.583 613.295 189.918L613.295 489.726C613.295 490.426 612.93 491.013 612.331 491.375L552.071 527.861C550.738 528.668 549.035 527.748 549.034 526.19C549.013 468.656 548.49 353.7 548.49 345.071C548.49 336.262 547.764 336.395 547.401 337.563C525.073 386.111 479.691 484.342 477.694 489.213C474.971 495.857 472.793 491.853 471.159 490.214C449.376 461.519 405.156 403.128 402.542 399.124C400.315 395.713 398.984 395.692 398.414 396.276C398.223 396.473 398.185 396.752 398.185 397.026V605.328L398.186 618.787C398.186 619.49 397.816 620.14 397.213 620.501L334.403 658.103C333.071 658.901 331.377 657.942 331.376 656.388Z" fill="#D9D9D9"/>
<path d="M331.376 656.388L331.203 350.829C331.202 350.103 331.573 349.446 332.207 349.092C354.361 336.722 406.092 306.264 406.353 306.109C406.362 306.105 406.355 306.109 406.363 306.104C406.622 305.957 412.397 302.664 412.345 302.605C432.131 324.627 468.763 364.891 470.07 366.092C471.248 367.174 472.219 366.713 472.665 366.245C472.757 366.149 472.821 366.031 472.876 365.911L534.066 232.038C534.238 231.661 534.511 231.355 534.869 231.147C557.205 218.19 602.006 192.198 606.76 189.417C611.553 186.615 613.114 188.583 613.295 189.918L613.295 489.726C613.295 490.426 612.93 491.013 612.331 491.375L552.071 527.861C550.738 528.668 549.035 527.748 549.034 526.19C549.013 468.656 548.49 353.7 548.49 345.071C548.49 336.262 547.764 336.395 547.401 337.563C525.073 386.111 479.691 484.342 477.694 489.213C474.971 495.857 472.793 491.853 471.159 490.214C449.376 461.519 405.156 403.128 402.542 399.124C400.315 395.713 398.984 395.692 398.414 396.276C398.223 396.473 398.185 396.752 398.185 397.026V605.328L398.186 618.787C398.186 619.49 397.816 620.14 397.213 620.501L334.403 658.103C333.071 658.901 331.377 657.942 331.376 656.388Z" fill="url(#paint2_linear_1249_6573)"/>
<defs>
<linearGradient id="paint0_linear_1249_6573" x1="-9.91161e-06" y1="394.746" x2="239.202" y2="636.888" gradientUnits="userSpaceOnUse">
<stop offset="0.0769231" stop-color="#D42A1D"/>
<stop offset="1" stop-color="#3E316E"/>
</linearGradient>
<linearGradient id="paint1_linear_1249_6573" x1="140.47" y1="16.177" x2="455.026" y2="349.897" gradientUnits="userSpaceOnUse">
<stop stop-color="#82AA1D"/>
<stop offset="0.307402" stop-color="#32AE3E"/>
<stop offset="0.669269" stop-color="#108F6F"/>
<stop offset="0.947115" stop-color="#0477A4"/>
</linearGradient>
<linearGradient id="paint2_linear_1249_6573" x1="464.08" y1="285.149" x2="493.561" y2="615.954" gradientUnits="userSpaceOnUse">
<stop stop-color="#0477A4"/>
<stop offset="0.879808" stop-color="#123D8C"/>
</linearGradient>
</defs>
</svg>